<svg id="Logos" xmlns="http://www.w3.org/2000/svg" viewBox="0 0 525.16 116.29"><defs><style>.cls-1{fill:#1d1d1b;}.cls-2{fill:#0082b9;}.cls-3{fill:#00354e;}.cls-4{fill:#b32663;}.cls-5{fill:#3b1251;}.cls-6{fill:#f39207;}.cls-7{fill:#d94c2c;}</style></defs><title>DXOmark_Logo_Exe_Temp</title><path class="cls-1" d="M88.37,44c-4.3-3.51-10.13-5.3-17.32-5.3H38.85v2.85l5.69,1.58V77.47H72.27A24.64,24.64,0,0,0,88,72.4a17.11,17.11,0,0,0,7-13.93A17.82,17.82,0,0,0,88.37,44ZM72.25,68.28H54.91V47.68H72.25c9.92,0,11.85,7.4,11.85,10.54C84.1,61.17,82.4,68.28,72.25,68.28Z"/><polygon class="cls-1" points="161.13 38.7 146.57 38.7 132.61 51.41 118.63 38.7 104.06 38.7 125.3 57.85 103.34 77.47 117.93 77.47 132.56 64.22 147.27 77.47 161.86 77.47 139.9 57.82 161.13 38.7"/><path class="cls-1" d="M330,38.85,307.27,77.42h11.32l4.48-7.83h24l4.48,7.83h11.32L340.22,38.85ZM328.3,60.79l6.84-11.55,6.76,11.55Z"/><path class="cls-1" d="M418.11,60.09a11.18,11.18,0,0,0,3.4-8.43,11.78,11.78,0,0,0-4.12-9.39c-2.67-2.27-6.32-3.42-10.84-3.42H374V77.42h10.14V64.08H401l10.53,13.34h12.08L412.72,63.13A13.41,13.41,0,0,0,418.11,60.09Zm-12.83-4H384.15V47.22h21.13c5.79,0,5.93,3.31,5.93,4.26C411.21,52.66,410.94,56.13,405.28,56.13Z"/><polygon class="cls-1" points="447.09 38.85 438.61 38.85 438.61 77.42 448.82 77.42 448.82 38.85 447.09 38.85"/><polygon class="cls-1" points="269.63 59.03 251.83 38.85 241.07 38.85 241.07 77.42 251.22 77.42 251.22 51.69 269.57 72.58 288.1 51.67 288.1 77.42 298.24 77.42 298.24 38.85 287.51 38.85 269.63 59.03"/><polygon class="cls-1" points="462.07 56.17 482.24 38.86 468.94 38.86 449.23 56.17 472.2 77.43 486.31 77.43 462.07 56.17"/><path class="cls-2" d="M180.94,63a21.56,21.56,0,0,1,.66-5.3H164.93v1.83l5.81,2.77h0a29.23,29.23,0,0,0,29,24.27A29.76,29.76,0,0,0,212,84l-.19-.33a22.83,22.83,0,0,1-8.34,1.58A22.37,22.37,0,0,1,180.94,63Z"/><path class="cls-3" d="M199.75,75.54a18,18,0,0,1-18.12-17.8h0a21.56,21.56,0,0,0-.66,5.3A22.37,22.37,0,0,0,203.5,85.21a22.83,22.83,0,0,0,8.34-1.58l-5.4-9.35A18.34,18.34,0,0,1,199.75,75.54Z"/><path class="cls-4" d="M194,37.41a23.89,23.89,0,0,1,14.26,4.68l.2.11L214,32.57h0l2.69-4.66-1.59-.9-5.31,3.64h0a29.57,29.57,0,0,0-10.18-1.79,29.18,29.18,0,0,0-29.26,26.39h.56A23.66,23.66,0,0,1,194,37.41Z"/><path class="cls-5" d="M199.58,39.93a18.31,18.31,0,0,1,8.63,2.16,23.9,23.9,0,0,0-37.33,13.17h10.76A18,18,0,0,1,199.58,39.93Z"/><path class="cls-6" d="M229.11,57.74a28.7,28.7,0,0,0-12.87-23.88l-.25.44A22,22,0,0,1,225,52a22.23,22.23,0,0,1-16.25,21.29l5.52,9.56h0L217,87.63l1.58-.92-.51-6.42A28.63,28.63,0,0,0,229.11,57.74Z"/><path class="cls-7" d="M225,52a22,22,0,0,0-9-17.7l-5.33,9.23a17.63,17.63,0,0,1-2,29.69l0,.07A22.23,22.23,0,0,0,225,52Z"/></svg>