<?xml version="1.0" encoding="UTF-8"?>
<svg id="Capa_1" data-name="Capa 1" xmlns="http://www.w3.org/2000/svg" viewBox="0 0 13665.97 14148.53">
  <defs>
    <style>
      .cls-1 {
        fill: #fff;
      }

      .cls-2 {
        fill: #40b882;
      }

      .cls-3 {
        fill: #f2c500;
      }

      .cls-4 {
        fill: #42b883;
        fill-rule: evenodd;
      }

      .cls-5 {
        fill: none;
        stroke: #376467;
        stroke-miterlimit: 10;
      }
    </style>
  </defs>
  <g>
    <path class="cls-3" d="M2855.58,7505.89h0s0,0,0,0h-.02Z"/>
    <path class="cls-2" d="M11231.74,6966.18h971.84c80.91,0,142.92,20.53,186.04,61.57,43.1,41.06,64.67,98.78,64.67,173.19v302.98c0,41.94-8.13,78.26-24.37,108.97-16.26,30.72-40.46,54.19-72.65,70.43-32.19,16.25-71.9,24.36-119.15,24.36h-66.44v46.96c19.5,1.77,36.33,6.79,50.49,15.05,14.18,8.29,26.73,20.38,37.65,36.33s22.88,38.4,35.88,67.34l194.89,421.68h-350.81l-209.07-503.18h-380.94v503.18h-318.04v-1328.85ZM12130.04,7552.2c4.73-5.01,7.1-11.96,7.1-20.82v-296.77c0-8.86-2.37-15.95-7.1-21.26-4.73-5.32-11.22-7.97-19.48-7.97h-560.79v354.36h560.79c8.26,0,14.75-2.51,19.48-7.53Z"/>
    <path class="cls-2" d="M3427,8237c-43.11-42.8-64.67-102.9-64.67-180.27v-852.24c0-77.36,21.56-137.45,64.67-180.28,43.11-42.82,104.54-64.23,184.27-64.23h745.04c77.96,0,137.6,21.26,178.95,63.79,41.33,42.52,62.01,101.87,62.01,178.06v209.96h-310.95v-165.67c0-8.86-2.37-15.64-7.09-20.37-4.73-4.72-11.51-7.09-20.37-7.09h-550.15c-8.28,0-14.92,2.37-19.93,7.09-5.03,4.73-7.53,11.51-7.53,20.37v768.96c0,8.28,2.5,14.92,7.53,19.94,5.01,5.02,11.65,7.52,19.93,7.52h548.37c8.86,0,15.79-2.5,20.82-7.52,5.01-5.02,7.52-11.66,7.52-19.94v-220.59h-297.66v-202.87h609.49v467.75c0,76.18-20.68,135.54-62.01,178.06-41.35,42.52-100.99,63.79-178.95,63.79h-745.04c-79.73,0-141.16-21.39-184.27-64.23Z"/>
    <path class="cls-2" d="M4748.75,6966.18h318.92v1066.62h661.77v262.23h-980.69v-1328.85Z"/>
    <path class="cls-2" d="M6507.25,7119.44l101,81.5h-222.36l102.76-80.62-343.73,1174.7h-348.16l452.69-1328.85h509.38l456.26,1328.85h-366.76l-341.08-1175.59ZM6070.49,7791.84h863.77l32.78,229.44h-932.86l36.32-229.44Z"/>
    <path class="cls-2" d="M7320.94,8241.87c-41.64-40.15-62.46-96.86-62.46-170.08v-206.42h314.5v159.47c0,18.91,9.73,28.34,29.23,28.34h524.45c9.45,0,16.68-2.5,21.7-7.52,5.02-5.02,7.54-12.55,7.54-22.6v-133.76c0-15.36-3.25-27.02-9.75-35-6.51-7.97-18.32-15.8-35.44-23.47l-669.73-173.64c-40.76-14.75-73.98-32.78-99.67-54.04-25.68-21.26-44.44-46.65-56.25-76.18-11.82-29.53-17.71-63.79-17.71-102.77v-234.76c0-73.23,20.95-129.92,62.89-170.09,41.94-40.15,101.29-60.24,178.08-60.24h722.89c76.18,0,135.1,20.08,176.74,60.24,41.63,40.17,62.45,96.87,62.45,170.09v201.1h-315.37v-154.14c0-9.45-2.37-16.53-7.1-21.26-4.73-4.72-11.81-7.09-21.26-7.09h-510.27c-9.45,0-16.55,2.52-21.26,7.53-4.74,5.02-7.1,12.55-7.1,22.59v125.8c0,14.77,3.24,26.28,9.75,34.55,6.49,8.28,18.01,16.25,34.56,23.92l676.81,179.84c40.15,14.17,72.65,31.89,97.45,53.15,24.81,21.26,42.82,46.38,54.04,75.3,11.22,28.95,16.84,63.21,16.84,102.76v238.32c0,73.23-20.82,129.93-62.46,170.08-41.64,40.17-100.55,60.24-176.74,60.24h-740.6c-76.2,0-135.11-20.07-176.74-60.24Z"/>
    <path class="cls-2" d="M9712.43,6966.18v262.23h-1152.55v-262.23h1152.55ZM9295.18,7038.82v1256.2h-318.04v-1256.2h318.04Z"/>
    <path class="cls-2" d="M9867.47,8237.88c-43.11-42.8-64.67-102.9-64.67-180.27v-854.01c0-77.36,21.56-137.45,64.67-180.28,43.11-42.81,104.54-64.22,184.26-64.22h776.06c79.72,0,141.15,21.41,184.26,64.22,43.1,42.83,64.67,102.92,64.67,180.28v854.01c0,77.38-21.57,137.47-64.67,180.27-43.11,42.83-104.54,64.23-184.26,64.23h-776.06c-79.72,0-141.15-21.39-184.26-64.23ZM10750.71,8036.35c5.32-4.73,7.98-11.22,7.98-19.5v-772.5c0-8.27-2.67-14.76-7.98-19.5-5.32-4.72-12.4-7.08-21.26-7.08h-580.25c-8.29,0-14.93,2.36-19.94,7.08-5.02,4.73-7.54,11.23-7.54,19.5v772.5c0,8.28,2.52,14.77,7.54,19.5,5.01,4.73,11.65,7.08,19.94,7.08h580.25c8.86,0,15.95-2.36,21.26-7.08Z"/>
    <g>
      <path class="cls-4" d="M1910.63,7477.35v-354.85c0-611.92,38.5-492.79-528.12-795.16v483.61c27.29,11.62,57.96,28.34,94.92,50.23,0,444.06-4.35,363.54,433.2,616.17ZM2570.04,7858.39c0-86.17,1.02-285.27,1.02-371.45-7.62-525.13,45.69-428.37-552.13-796.58v499.85l116.61,66.37c0,412.28,14.53,359.34,434.5,601.81ZM204.61,7333.81c0,568.46-58.18,462.1,433.18,748.1v-1438.44c-28.7,16.14-55.44,31.2-80.46,45.44C-11.07,7006.87-8.45,6942.91,3.43,7449.96l201.19-116.15ZM2193.74,7769.31c-270.39-156.11-540.82-312.23-811.23-468.37,0,263.72-42.6,469.82,200.26,615.59,111.5,76.99,284.95,168,554.55,321.07l-423.74,244.63c-500.16,288.75-348.39,288.75-848.54,0-359.71-207.66-421.46-198.02-427.79-391.08-354.36-199.84-324.34-132.25-321.86-580.75-36.1,20.84-72.19,41.68-108.29,62.51v269.91c-7.06,762.44-85.18,595.12,641.35,1014.59,825.37,474.13,502.34,444.74,1281.75,0,592.18-372.95,641.83-346.55,642.46-672.53.44-222.37-21.46-210.58-378.9-415.57ZM841.01,7026.3v257.17c0,767.8-2.91,666.89,433.21,918.68v-1891.42c-635.09,335.22-528.12,159.62-528.12,768.89,28.92-16,60.45-33.63,94.91-53.33Z"/>
      <path class="cls-5" d="M1910.63,7477.35v-354.85c0-611.92,38.5-492.79-528.12-795.16v483.61c27.29,11.62,57.96,28.34,94.92,50.23,0,444.06-4.35,363.54,433.2,616.17ZM2570.04,7858.39c0-86.17,1.02-285.27,1.02-371.45-7.62-525.13,45.69-428.37-552.13-796.58v499.85l116.61,66.37c0,412.28,14.53,359.34,434.5,601.81ZM204.61,7333.81c0,568.46-58.18,462.1,433.18,748.1v-1438.44c-28.7,16.14-55.44,31.2-80.46,45.44C-11.07,7006.87-8.45,6942.91,3.43,7449.96l201.19-116.15ZM2193.74,7769.31c-270.39-156.11-540.82-312.23-811.23-468.37,0,263.72-42.6,469.82,200.26,615.59,111.5,76.99,284.95,168,554.55,321.07l-423.74,244.63c-500.16,288.75-348.39,288.75-848.54,0-359.71-207.66-421.46-198.02-427.79-391.08-354.36-199.84-324.34-132.25-321.86-580.75-36.1,20.84-72.19,41.68-108.29,62.51v269.91c-7.06,762.44-85.18,595.12,641.35,1014.59,825.37,474.13,502.34,444.74,1281.75,0,592.18-372.95,641.83-346.55,642.46-672.53.44-222.37-21.46-210.58-378.9-415.57ZM841.01,7026.3v257.17c0,767.8-2.91,666.89,433.21,918.68v-1891.42c-635.09,335.22-528.12,159.62-528.12,768.89,28.92-16,60.45-33.63,94.91-53.33Z"/>
    </g>
  </g>
  <path class="cls-1" d="M9747.47,5453.37s0,0,0,0c0,0,0,0,0,0,0,0,0,0,0,0Z"/>
</svg>