<?xml version="1.0" encoding="UTF-8"?>
<svg width="600" height="215" version="1.1" xmlns="http://www.w3.org/2000/svg">
 <path d="m89.33 159.36c6.5464 0 11.967 1.7114 16.194 4.8189 5.6167 4.1369 5.8547 8.7724 5.8579 16.406v3.4968c-6e-3 7.6336-0.24448 12.276-5.8579 16.406-4.2238 3.1107-9.6506 4.8285-16.194 4.8285-6.5464 0-11.886-1.7146-16.107-4.8253-5.8226-4.2881-5.948-9.1198-5.9512-17.268l3e-3 -0.88786c0-8.6984-0.0804-13.714 5.9512-18.156 4.2141-3.1075 9.5606-4.8189 16.104-4.8189zm0 6.8777c-3.9085 0-7.5404 1.0294-9.8597 2.6797-3.1397 2.2196-3.8635 4.5583-3.9117 12.514v0.90394c0 8.6856 0.65624 11.121 3.9117 13.421 2.3194 1.647 5.9512 2.6797 9.8597 2.6797s7.5371-1.0326 9.863-2.6797c3.2619-2.3001 3.9085-4.732 3.9085-13.421 0-8.6856-0.64981-11.121-3.9085-13.414-2.3258-1.6567-5.9512-2.6829-9.863-2.6829zm142.54-6.5045v38.355h30.56v6.852h-38.844v-45.21h8.2802zm-21.019 0v6.8455h-30.921v12.128h26.533v6.8455h-26.533v12.536h30.921v6.852h-39.198v-45.21h39.198zm-49.784 0v6.8455h-17.394v38.358h-8.2802v-38.358h-17.397v-6.8455h43.074zm-142.78 0v18.906h26.948v-18.906h8.277v45.204h-8.277v-19.452h-26.948v19.452h-8.277v-45.204z" fill="#a09693"/>
 <path d="m280.59 9.66c1.8015-0.47288 2.9563 0.78813 2.9563 0.78813 0.9908 2.1939 2.8662 5.636 3.7123 8.1291 0.71737 2.1264-0.55008 3.6672-0.55008 3.6672-3.6093 5.34-18.06 19.15-18.06 19.15s-1.8111 1.5763-1.3189 1.5763c0.49862 0 1.9719-0.6273 1.9719-0.6273 4.925-2.8308 12.285-8.5794 20.485-11.124 6.2279-1.9301 12.533-2.477 14.058-2.7376 1.8561-0.32168 3.3938 0.66912 3.3938 0.66912s5.0923 4.079 6.4016 5.34c1.3125 1.2546 0.65624 2.8212 0.65624 2.8212s-2.1392 3.1204-3.1268 4.5294c-0.98436 1.4154-1.9494 2.1875-3.6994 2.4127-1.6245 0.22197-3.6833-0.1898-3.6833-0.1898-12.822-1.4701-19.645-0.0225-25.96 1.7468-14.852 4.1755-23.966 11.397-25.265 12.671-0.82995 0.81387-1.1163 0.92325-0.86856 1.2031 0.57904 0.64016 1.4283-0.6659 1.4283-0.6659 5.2532-3.6158 10.442-5.4751 10.442-5.4751 18.603-7.238 29.843-5.3368 38.622-4.0854 7.5275 1.0776 13.141 3.3327 17.188 5.3239 2.477 1.216 3.2555 2.8437 3.2555 2.8437 1.0616 2.6797 1.1935 3.931 1.8433 6.7554 0.66589 2.8308-1.6342 3.3005-1.6342 3.3005-4.2784 0.94254-5.9062 1.454-7.9103 2.1778-2.3515 0.85569-3.5546-1.4733-3.5546-1.4733s-11.89-13.189-30.406-12.913c-14.482 0.21553-26.111 7.4278-26.111 7.4278s-0.85891 0.59512-0.55331 1.1098c0.30561 0.53078 1.2031-0.01 1.2031-0.01 2.789-1.2546 8.0583-5.147 21.473-4.9797 17.361 0.21231 34.331 15.801 37.461 18.787 3.4742 3.3295 4.687 4.9669 6.5045 7.4085 1.6824 2.2486 1.6824 3.6447 1.6824 3.6447s-0.77205 6.2729-2.5832 8.1612c-1.8014 1.8883-3.9342 1.2546-3.9342 1.2546l-0.0418-0.01c-0.48253-0.13189-4.851-1.335-7.0192-1.7822-2.3001-0.47288-2.2968-2.8276-2.2968-2.8276-1.8626-18.851-15.924-25.574-17.564-26.201-1.647-0.6273 0.0965 0.79778 0.0965 0.79778s4.7481 3.5482 7.3666 7.6176c4.6741 7.3023 5.8772 12.929 5.5427 18.896-0.21231 4.0854-0.38602 4.4618-2.2389 5.8-2.2743 1.647-7.0675 2.8952-7.0675 2.8952-2.477 0.53722-5.0376-2.7794-7.1061-7.6208-1.0101-2.3612 0.92968-3.7573 0.92968-3.7573s4.0404-4.8285 3.4839-9.4512c-0.6466-5.2982-6.6461-16.634-21.424-16.634s-21.469 9.3386-21.469 9.3386-0.75275 0.83639-0.56296 1.1291c0.33456 0.53722 1.0616-0.0611 1.0616-0.0611 8.0518-6.5946 18.191-7.9875 26.768-4.0822 8.7563 3.9954 8.1837 12.99 7.846 14.695-0.33777 1.6921-2.6121 3.1332-2.6121 3.1332-2.107 1.6921-4.2559 3.1043-4.2559 3.1043s-1.5634 1.171-2.6507 0.83639c-1.0937-0.34742-2.863-2.165-2.863-2.165-1.4315-1.2096-1.4315-1.0165-3.6608-2.9788-1.0809-0.95863-1.097-2.136-1.097-2.136 0.12546-0.80743 0.25092-1.0069 0.55974-1.4926 1.3511-1.8208 1.0133-2.789 1.0133-2.789s-1.068-6.7715-10.288-5.0988c-9.7664 1.7693-10.802 13.34-10.802 13.34 0 14.836 11.323 23.789 11.323 23.789 19.948 15.779 43.354 7.772 43.354 7.772s1.631-0.52757 1.6567-1.1195c0.045-0.8589-1.4219-0.29595-1.4219-0.29595-27.086 6.3598-36.415-8.5923-36.415-8.5923-4.6806-6.1217-2.2486-12.366 2.6797-13.07 4.9283-0.70771 6.4016 2.5864 6.4016 2.5864 2.9563 7.5339 21.508 22.013 44.091 8.4829 2.9145-1.7468 5.5491-3.8024 7.9457-6.0124 4.4586-4.6226 9.5734-10.78 13.704-18.053 2.6957-4.954 3.9921-8.5247 3.9921-8.5247l0.0643 0.0901c2.0813-5.2435 3.4935-10.902 3.7638-16.847 0 0 0.41819-20.868-11.42-21.35 0 0-4.4489-0.51148-4.613 3.1011 0 0 0.17049-0.8203 1.4765-0.7624 1.2964 0.0515 1.7532 1.5505 1.676 3.1944-0.0772 1.6406-1.5119 3.0625-4.6001 2.9338-3.0882-0.12867-3.9696-2.6282-3.8602-4.925 0.0965-2.3001 3.7573-8.0679 11.484-7.7527 7.7205 0.32169 18.812 9.0877 17.941 28.617-0.35708 7.8814-3.2651 17.455-6.5689 24.966 0 0-5.8226 14.502-20.311 26.317 14.913 0.0482 21.81 8.5762 21.81 13.984 0 5.4204-4.539 7.8074-6.3051 7.8074-1.7693 0-3.6608-0.69163-3.6608-2.863s1.142-3.1365 2.3934-3.1365c1.261 0 2.4062 0.36029 2.4062 1.2771 0 0.92325-0.63373 1.0133-0.63373 1.0133 2.7665 0 2.522-3.1365 2.522-3.1365 0-8.3188-16.017-8.6791-16.017-8.6791-6.9678 0-13.443 1.5119-19.108 3.6737-0.28309 0.10937-0.57904 0.21231-0.87178 0.33134-9.4898 3.7702-16.567 9.2968-19.504 12.34-1.3768 0.99401-2.2582 0.14154-2.4995-1.9945-0.1351-1.2803 0.12868-2.3676 0.29917-3.664 0.25735-1.1066 0.82353-1.824 1.1163-2.1296-1.676 0.11259-3.3777 0.19301-5.1374 0.19301-17.252 0-36.457-5.1824-38.67-5.4172-2.2196-0.23805-4.6806 1.1838-5.6617 2.1167-0.98758 0.94898-1.9719-0.23162-1.9719-0.23162-0.7431-2.3483-0.7431-8.4829 1.4765-10.6 2.2132-2.1167 9.8469 2.8308 9.8469 2.8308s1.9719 1.647 2.7118 0.93933c0.73666-0.70771-1.7242-2.3548-1.7242-2.3548s-12.314-8.4829-14.048-26.378c-1.7146-17.902 6.1796-29.425 10.979-39.738 0.70771-1.5184 6.0638-11.594 2.506-17.912-3.4517-6.1185-8.5666-10.104-8.5666-10.104-2.9499-0.24448-2.2711-2.6314-2.2711-2.6314 0.97472-3.4968 2.017-6.1442 2.2711-7.4342 0.60155-3.0786 3.3681-3.3842 3.3681-3.3842 2.0588-0.0386 5.5588 0.24127 6.408 0.2863 3.1043 0.14798 4.2012 1.2482 4.2012 1.2482 2.358 3.056 5.0537 9.4962 5.385 17.069 0.4568 10.101-8.5987 22.563-9.2582 23.67-0.65624 1.1034-0.64981 1.483-0.64981 1.483 0.53079 0.32812 1.4766-0.62408 1.4766-0.62408 3.2909-3.0303 10.789-13.254 10.789-13.254 9.0298-13.977 7.8974-22.608 7.0675-24.963-0.81709-2.3548 1.1806-3.5418 1.1806-3.5418 3.6994-0.80744 7.0257-1.2835 8.8336-1.75z"/>
 <path d="m344.84 159.23c7.1093 0 13.221 1.5795 18.742 4.9379l-4.835 5.073c-3.7927-2.6829-10.246-3.5546-13.759-3.4549-7.2476 0.22518-12.288 2.7858-12.343 6.5238-0.0354 2.2132 1.3511 3.4646 2.9917 4.5551 1.5602 1.0133 4.1112 1.454 6.9613 1.7693l6.9903 0.76562c5.6971 0.64338 8.8979 1.6599 11.478 3.3842 3.3713 2.165 5.0183 5.4301 5.0183 9.3161 6e-3 8.3832-9.2389 13.35-22.113 13.35-9.2324 0-15.846-1.7371-20.929-6.0831l4.8993-4.8671c3.6898 3.574 11.027 4.3589 16.625 4.3589 8.0326 0 13.504-2.4963 13.504-6.9034 0-1.9752-1.2868-5.5909-10.378-6.2986l-7.2541-0.75918c-5.0022-0.5147-8.988-1.7886-11.652-3.6415-3.0239-2.1103-4.4972-4.9862-4.4972-8.6856 0-7.9135 7.772-13.34 20.549-13.34zm-27.66 0.38v6.8841h-30.991v12.198h26.584v6.8841h-26.584v12.61h30.988v6.8873h-39.288v-45.464h39.288zm84.72 0c11.999 0 19.694 5.2339 19.694 14.231 0 7.9167-7.6916 13.993-19.694 13.993h-15.004v17.242h-8.2995v-45.471h23.303zm0.51469 6.8841h-15.518v14.441h15.515c6.482 0 10.879-2.2196 10.879-7.0128 0-4.7835-4.3975-7.431-10.879-7.431zm48.865-6.8841 22.537 45.464h-9.9241l-4.079-8.7756h-24.58l-4.0694 8.7756h-9.9337l22.531-45.464zm-3.5386 10.278-9.2743 19.517h18.291zm119.73-10.278 22.531 45.464h-9.9241l-4.0726-8.7756h-24.593l-4.0694 8.7756h-9.9209l22.534-45.464zm-3.5386 10.278-9.2678 19.517h18.285l-9.0137-19.517zm-73.881-10.278 29.959 33.057v-33.057h8.7917v45.464h-7.1093l-30.445-33.134v33.134h-8.7242v-45.464zm9.75-12.52c2.5092 0 4.1401 0.5147 6.4659 1.5377 1.7403 0.7624 3.0271 1.216 4.7546 1.216 1.3897 0 2.7665-0.25735 5.0955-1.9848l2.8695 3.6029c-3.3037 2.3773-5.0312 2.9081-7.7044 2.9081-2.5092 0-4.2334-0.5147-6.4756-1.4669-1.6438-0.69807-2.8148-1.2031-4.5454-1.2031-1.4669 0-2.8791 0.11259-5.2982 1.9044l-2.7086-3.4163c2.5542-2.2325 4.7803-3.0978 7.5468-3.0978z"/>
</svg>
